# xmcd CD database file
#
# Track frame offsets:
#	183
#	10033
#	20580
#	31998
#	41773
#	52238
#	62738
#	77933
#	89585
#	101738
#	115790
#	124815
#	134268
#	144360
#
# Disc length: 2104 seconds
#
# Revision: 0
# Processed by: cddbd v1.5.2PL0 Copyright (c) Steve Scherf et al.
# Submitted via: CDex 1.51
#
DISCID=c208360e
DTITLE=Dave Duddly - "TRUCK  DRIVIN' SON OF A GUN"
DYEAR=1990
DGENRE=Country
TTITLE0=Six Days On The Road
TTITLE1=Jacknife
TTITLE2=Canadian Sunset
TTITLE3=Rollin' Rig
TTITLE4=I Whish You All The Heartaches You Can Stand
TTITLE5=My World Is Comin' Down
TTITLE6=Have It Your Way
TTITLE7=Truck Drivin' Son Of A Gun
TTITLE8=Please Let Me Prove My Love For You
TTITLE9=If It Feels Good Do It
TTITLE10=It Takes Time
TTITLE11=There Was A Tall Dak Oak Tree
TTITLE12=John Henry
TTITLE13=Water By
EXTD=YEAR: 1990
EXTT0=
EXTT1=
EXTT2=
EXTT3=
EXTT4=
EXTT5=
EXTT6=
EXTT7=
EXTT8=
EXTT9=
EXTT10=
EXTT11=
EXTT12=
EXTT13=
PLAYORDER=
